<svg id="Warstwa_1" data-name="Warstwa 1" xmlns="http://www.w3.org/2000/svg" xmlns:xlink="http://www.w3.org/1999/xlink" viewBox="0 0 162.72 219.34"><defs><style>.cls-1{fill:url(#Gradient_bez_nazwy_98);}</style><linearGradient id="Gradient_bez_nazwy_98" x1="58.31" y1="85.16" x2="200" y2="165.18" gradientUnits="userSpaceOnUse"><stop offset="0" stop-color="#ba00e9"/><stop offset="1" stop-color="#ff9400"/></linearGradient></defs><path class="cls-1" d="M181.36,143.88l17.86,10.3a4.3,4.3,0,0,1,2.14,3.71v6.61a4.3,4.3,0,0,1-2.14,3.71l-7.86,4.53-59.22,34.2a4.3,4.3,0,0,0-2.14,3.71v14.74a4.28,4.28,0,0,1-4.28,4.28H114.28a4.28,4.28,0,0,1-4.28-4.28V210.65a4.3,4.3,0,0,0-2.14-3.71l-62.8-36.26a4.28,4.28,0,0,1,0-7.42l11.43-6.59a4.25,4.25,0,0,1,4.28,0L110,185.08l7.86,4.54a4.3,4.3,0,0,0,4.28,0l7.86-4.54,34.94-20.17a4.29,4.29,0,0,0,0-7.42L130,137.32l-20-11.55L58.64,96.12,40.78,85.82a4.3,4.3,0,0,1-2.14-3.71V75.5a4.3,4.3,0,0,1,2.14-3.71l7.86-4.53,59.22-34.2A4.3,4.3,0,0,0,110,29.35V14.61a4.28,4.28,0,0,1,4.28-4.28h11.44A4.28,4.28,0,0,1,130,14.61V29.35a4.3,4.3,0,0,0,2.14,3.71l62.8,36.26a4.28,4.28,0,0,1,0,7.42L183.5,83.33a4.25,4.25,0,0,1-4.28,0L130,54.91l-7.86-4.54a4.3,4.3,0,0,0-4.28,0L110,54.91,75.05,75.09a4.29,4.29,0,0,0,0,7.42l35,20.17,20,11.55Z" transform="translate(-38.64 -10.33)"/></svg>